<?xml version="1.0" encoding="UTF-8"?>
<svg id="Layer_1" data-name="Layer 1" xmlns="http://www.w3.org/2000/svg" xmlns:xlink="http://www.w3.org/1999/xlink" viewBox="0 0 913.47 144.53">
  <defs>
    <style>
      .cls-1 {
        fill: url(#linear-gradient);
        stroke-width: 0px;
      }
    </style>
    <linearGradient id="linear-gradient" x1="321.94" y1="-149.81" x2="595.77" y2="324.48" gradientUnits="userSpaceOnUse">
      <stop offset=".38" stop-color="#7c3aed"/>
      <stop offset=".48" stop-color="#6146ec"/>
      <stop offset=".6" stop-color="#4752eb"/>
      <stop offset=".73" stop-color="#345beb"/>
      <stop offset=".86" stop-color="#2861eb"/>
      <stop offset="1" stop-color="#2563eb"/>
    </linearGradient>
  </defs>
  <path class="cls-1" d="M141.06,75.74c0,10.25-1.77,19.61-5.31,28.08-3.54,8.48-8.45,15.73-14.73,21.77-6.28,6.04-13.75,10.7-22.41,14-8.66,3.29-18.05,4.94-28.17,4.94s-19.48-1.65-28.08-4.94-16.04-7.96-22.32-14c-6.28-6.04-11.19-13.29-14.73-21.77-3.54-8.48-5.31-17.84-5.31-28.08s1.77-19.73,5.31-28.08c3.54-8.35,8.44-15.46,14.73-21.31,6.28-5.85,13.72-10.37,22.32-13.54,8.6-3.17,17.96-4.76,28.08-4.76s19.51,1.59,28.17,4.76c8.66,3.17,16.13,7.68,22.41,13.54,6.28,5.85,11.19,12.96,14.73,21.31,3.54,8.36,5.31,17.72,5.31,28.08ZM107.58,75.74c0-5.61-.91-10.85-2.74-15.73-1.83-4.88-4.36-9.06-7.59-12.53-3.23-3.48-7.14-6.22-11.71-8.23-4.57-2.01-9.6-3.02-15.09-3.02s-10.49,1.01-15,3.02c-4.51,2.01-8.42,4.76-11.71,8.23-3.29,3.48-5.83,7.66-7.59,12.53-1.77,4.88-2.65,10.13-2.65,15.73s.91,11.25,2.74,16.19c1.83,4.94,4.36,9.18,7.59,12.72,3.23,3.54,7.1,6.31,11.62,8.32,4.51,2.01,9.51,3.02,15,3.02s10.49-1.01,15-3.02c4.51-2.01,8.42-4.79,11.71-8.32,3.29-3.54,5.85-7.78,7.68-12.72,1.83-4.94,2.74-10.34,2.74-16.19Z"/>
  <path class="cls-1" d="M213.69,76.84c-2.44-2.32-5.31-4.27-8.6-5.85-3.29-1.58-6.77-2.38-10.43-2.38-2.81,0-5.4.55-7.78,1.65-2.38,1.1-3.57,2.99-3.57,5.67s1.31,4.39,3.93,5.49c2.62,1.1,6.86,2.32,12.72,3.66,3.41.73,6.86,1.77,10.34,3.11,3.48,1.34,6.61,3.11,9.42,5.31,2.8,2.2,5.06,4.88,6.77,8.05,1.71,3.17,2.56,6.95,2.56,11.34,0,5.73-1.16,10.58-3.48,14.54-2.32,3.96-5.34,7.17-9.06,9.6-3.72,2.44-7.9,4.21-12.53,5.31-4.64,1.1-9.27,1.65-13.9,1.65-7.44,0-14.73-1.19-21.86-3.57-7.14-2.38-13.08-5.88-17.84-10.52l16.83-17.75c2.68,2.93,5.97,5.37,9.88,7.32,3.9,1.95,8.05,2.93,12.44,2.93,2.44,0,4.85-.58,7.23-1.74,2.38-1.16,3.57-3.2,3.57-6.13s-1.46-4.88-4.39-6.22c-2.93-1.34-7.5-2.74-13.72-4.21-3.17-.73-6.34-1.71-9.51-2.93-3.17-1.22-6.01-2.86-8.51-4.94-2.5-2.07-4.55-4.63-6.13-7.68-1.59-3.05-2.38-6.71-2.38-10.98,0-5.49,1.16-10.15,3.48-14,2.32-3.84,5.31-6.98,8.96-9.42,3.66-2.44,7.71-4.24,12.17-5.4,4.45-1.16,8.87-1.74,13.26-1.74,6.83,0,13.51,1.07,20.03,3.2,6.52,2.14,12.04,5.34,16.56,9.6l-16.47,17.01Z"/>
  <path class="cls-1" d="M246.8,141.06V2.74h30.55v138.31h-30.55Z"/>
  <path class="cls-1" d="M397.55,95.14c0,7.44-1.34,14.18-4.02,20.22-2.68,6.04-6.34,11.16-10.98,15.37-4.64,4.21-10,7.47-16.1,9.79-6.1,2.32-12.62,3.48-19.58,3.48s-13.33-1.16-19.48-3.48c-6.16-2.32-11.53-5.58-16.1-9.79s-8.2-9.33-10.89-15.37c-2.68-6.04-4.02-12.78-4.02-20.22s1.34-14.15,4.02-20.12c2.68-5.97,6.31-11.04,10.89-15.19,4.57-4.15,9.94-7.32,16.1-9.51,6.16-2.2,12.65-3.29,19.48-3.29s13.48,1.1,19.58,3.29c6.1,2.2,11.46,5.37,16.1,9.51,4.63,4.15,8.29,9.21,10.98,15.19,2.68,5.98,4.02,12.69,4.02,20.12ZM368.65,95.14c0-2.93-.49-5.79-1.46-8.6-.98-2.8-2.38-5.27-4.21-7.41-1.83-2.13-4.09-3.87-6.77-5.21-2.68-1.34-5.79-2.01-9.33-2.01s-6.65.67-9.33,2.01c-2.68,1.34-4.91,3.08-6.68,5.21-1.77,2.14-3.11,4.61-4.02,7.41-.92,2.81-1.37,5.67-1.37,8.6s.46,5.79,1.37,8.6c.91,2.81,2.29,5.34,4.12,7.59,1.83,2.26,4.08,4.06,6.77,5.4,2.68,1.34,5.79,2.01,9.33,2.01s6.65-.67,9.33-2.01c2.68-1.34,4.94-3.14,6.77-5.4,1.83-2.26,3.2-4.79,4.12-7.59.91-2.8,1.37-5.67,1.37-8.6Z"/>
  <path class="cls-1" d="M569.8,113.52c-2.62,6.4-6.38,11.89-11.25,16.47-4.88,4.57-10.77,8.14-17.66,10.7-6.89,2.56-14.54,3.84-22.96,3.84s-16.22-1.28-23.05-3.84c-6.83-2.56-12.62-6.13-17.38-10.7-4.76-4.57-8.42-10.06-10.98-16.47-2.56-6.4-3.84-13.51-3.84-21.31V11.53h31.1v78.12c0,3.54.46,6.89,1.37,10.06.92,3.17,2.32,6.01,4.21,8.51,1.89,2.5,4.39,4.48,7.5,5.95,3.11,1.46,6.86,2.2,11.25,2.2s8.14-.73,11.25-2.2c3.11-1.46,5.64-3.45,7.59-5.95,1.95-2.5,3.35-5.33,4.21-8.51.85-3.17,1.28-6.52,1.28-10.06V11.53h31.29v80.68c0,7.81-1.31,14.91-3.93,21.31Z"/>
  <path class="cls-1" d="M629.9,72.27v34.9c0,4.29.82,7.5,2.47,9.64,1.65,2.14,4.6,3.21,8.87,3.21,1.46,0,3.02-.12,4.67-.37,1.65-.24,3.02-.61,4.12-1.1l.37,21.95c-2.08.73-4.7,1.37-7.87,1.92-3.17.55-6.34.82-9.51.82-6.1,0-11.22-.77-15.37-2.29-4.15-1.53-7.47-3.73-9.97-6.6-2.5-2.87-4.3-6.3-5.4-10.27s-1.65-8.41-1.65-13.3v-38.52h-14.64v-22.32h14.45v-23.97h29.46v23.97h21.41v22.32h-21.41Z"/>
  <path class="cls-1" d="M665.76,141.06V2.74h30.55v138.31h-30.55Z"/>
  <path class="cls-1" d="M718.63,62.39c5.37-5.12,11.62-8.96,18.75-11.53,7.14-2.56,14.42-3.84,21.86-3.84s14.18.95,19.48,2.84c5.31,1.89,9.61,4.82,12.9,8.78,3.29,3.96,5.7,8.96,7.23,15,1.52,6.04,2.29,13.2,2.29,21.5v45.92h-27.44v-9.7h-.55c-2.32,3.78-5.83,6.71-10.52,8.78-4.7,2.07-9.79,3.11-15.28,3.11-3.66,0-7.44-.49-11.34-1.46-3.9-.97-7.47-2.56-10.7-4.76-3.23-2.2-5.89-5.12-7.96-8.78-2.08-3.66-3.11-8.17-3.11-13.54,0-6.59,1.8-11.89,5.4-15.92,3.6-4.02,8.23-7.14,13.9-9.33,5.67-2.2,11.98-3.66,18.94-4.39,6.95-.73,13.72-1.1,20.31-1.1v-1.46c0-4.51-1.59-7.84-4.76-9.97-3.17-2.13-7.08-3.2-11.71-3.2-4.27,0-8.39.92-12.35,2.74-3.96,1.83-7.35,4.03-10.15,6.59l-15.18-16.28ZM780.65,19.58c0,2.81-.52,5.43-1.55,7.87-1.04,2.44-2.47,4.51-4.3,6.22-1.83,1.71-3.96,3.05-6.4,4.02-2.44.98-5,1.46-7.68,1.46s-5.4-.49-7.78-1.46c-2.38-.97-4.48-2.32-6.31-4.02-1.83-1.71-3.26-3.75-4.3-6.13-1.04-2.38-1.56-4.97-1.56-7.78,0-5.73,1.92-10.46,5.76-14.18,3.84-3.72,8.57-5.58,14.18-5.58,2.68,0,5.24.49,7.68,1.46,2.44.98,4.57,2.35,6.4,4.12,1.83,1.77,3.26,3.84,4.3,6.22,1.04,2.38,1.55,4.97,1.55,7.78ZM773.7,101.36h-3.84c-3.29,0-6.62.15-9.97.46-3.36.31-6.34.89-8.96,1.74-2.62.85-4.79,2.1-6.5,3.75-1.71,1.65-2.56,3.81-2.56,6.5,0,1.71.39,3.17,1.19,4.39.79,1.22,1.8,2.2,3.02,2.93,1.22.73,2.62,1.25,4.21,1.55,1.58.31,3.11.46,4.57.46,6.1,0,10.76-1.68,14-5.03,3.23-3.35,4.85-7.9,4.85-13.63v-3.11ZM771.5,19.58c0-3.05-1.04-5.58-3.11-7.59-2.08-2.01-4.64-3.02-7.68-3.02s-5.76,1.04-7.78,3.11c-2.01,2.08-3.02,4.64-3.02,7.68s1.03,5.4,3.11,7.41c2.07,2.01,4.63,3.02,7.68,3.02s5.61-1.01,7.68-3.02c2.07-2.01,3.11-4.54,3.11-7.59Z"/>
  <path class="cls-1" d="M883.29,141.06v-49.76c0-2.56-.21-5-.64-7.32-.43-2.32-1.13-4.36-2.1-6.13-.98-1.77-2.35-3.17-4.12-4.21-1.77-1.03-4-1.56-6.68-1.56s-5.03.52-7.04,1.56c-2.01,1.04-3.69,2.47-5.03,4.3-1.34,1.83-2.35,3.93-3.02,6.31-.67,2.38-1.01,4.85-1.01,7.41v49.4h-30.19V49.95h29.09v12.62h.37c1.1-1.95,2.53-3.87,4.3-5.76,1.77-1.89,3.84-3.5,6.22-4.85,2.38-1.34,4.97-2.44,7.78-3.29,2.8-.85,5.79-1.28,8.96-1.28,6.1,0,11.28,1.1,15.55,3.29,4.27,2.2,7.71,5.03,10.34,8.51,2.62,3.48,4.51,7.47,5.67,11.98,1.16,4.51,1.74,9.03,1.74,13.54v56.35h-30.19Z"/>
</svg>